Coordinates
version=1
nRows=37
nColumns=38
inDegrees=no

Units are S.I. units (second, meters, Newtons, ...)
If the header above contains a line with 'inDegrees', this indicates whether rotational values are in degrees (yes) or radians (no).

endheader
time	pelvis_tilt	pelvis_list	pelvis_rotation	pelvis_tx	pelvis_ty	pelvis_tz	hip_flexion_r	hip_adduction_r	hip_rotation_r	knee_angle_r	ankle_angle_r	subtalar_angle_r	mtp_angle_r	hip_flexion_l	hip_adduction_l	hip_rotation_l	knee_angle_l	ankle_angle_l	subtalar_angle_l	mtp_angle_l	lumbar_extension	lumbar_bending	lumbar_rotation	arm_flex_r	arm_add_r	arm_rot_r	elbow_flex_r	pro_sup_r	wrist_flex_r	wrist_dev_r	arm_flex_l	arm_add_l	arm_rot_l	elbow_flex_l	pro_sup_l	wrist_flex_l	wrist_dev_l
1.98	-1.13031	1.54451	-0.328987	0.781648	0.384539	0.946703	0.390721	-0.130432	-0.0914164	1.33199	-0.367666	0	0	0.0166873	0.00791386	-0.112888	0.313623	-0.208214	0	0	-0.068207	0.0568767	-0.133031	-0.0397322	-0.280623	0.305854	0.80938	1.56192	0	0	-0.0677057	-0.27222	0.332958	0.698941	1.5708	0	0
1.99	-1.14716	1.54112	-0.309013	0.782242	0.37647	0.947133	0.407414	-0.127916	-0.0947459	1.31315	-0.348875	0	0	0.00209161	0.00349363	-0.112871	0.305118	-0.206368	0	0	-0.0704295	0.0619216	-0.136546	-0.0447933	-0.280678	0.292824	0.81336	1.56032	0	0	-0.0600716	-0.270796	0.326741	0.70901	1.5708	0	0
2	-0.826162	1.53234	-0.623088	0.783592	0.368219	0.948399	0.412731	-0.137676	-0.155434	1.29691	-0.338555	0	0	-0.0288226	0.000439649	-0.112911	0.29117	-0.207571	0	0	-0.0838961	0.0671664	-0.158431	-0.0188209	-0.314429	0.390827	0.815261	1.42307	0	0	-0.0649083	-0.267966	0.297816	0.727659	1.5708	0	0
2.01	-0.717729	1.52482	-0.726559	0.784475	0.360163	0.949276	0.421278	-0.14236	-0.194738	1.26726	-0.340357	0	0	-0.0531572	-0.00327212	-0.112412	0.278587	-0.20869	0	0	-0.101181	0.0723194	-0.161578	-0.0403844	-0.283732	0.287827	0.819897	1.56094	0	0	-0.0602232	-0.263146	0.274062	0.749162	1.5708	0	0
2.02	-0.7247	1.52137	-0.716755	0.784954	0.352196	0.949481	0.432717	-0.139754	-0.203051	1.23316	-0.336364	0	0	-0.069463	-0.00728474	-0.11234	0.269162	-0.207386	0	0	-0.105354	0.0766555	-0.169129	-0.0380738	-0.285039	0.287472	0.818816	1.55749	0	0	-0.0573483	-0.260838	0.258917	0.764486	1.5708	0	0
2.03	-0.732247	1.51897	-0.706837	0.785301	0.34424	0.949492	0.443332	-0.136374	-0.20677	1.19517	-0.335028	0	0	-0.0844452	-0.0106641	-0.112074	0.260708	-0.205765	0	0	-0.10867	0.0800412	-0.176168	-0.0353958	-0.286354	0.288287	0.817145	1.55509	0	0	-0.0546598	-0.258917	0.244691	0.780159	1.5708	0	0
2.04	-0.7388	1.51761	-0.69895	0.785477	0.336347	0.949307	0.453247	-0.132208	-0.206665	1.15331	-0.3343	0	0	-0.0981587	-0.0133116	-0.111942	0.253539	-0.203702	0	0	-0.111442	0.082415	-0.182208	-0.0320862	-0.287702	0.290039	0.814977	1.55267	0	0	-0.0516629	-0.257546	0.232342	0.795863	1.5708	0	0
2.05	-0.750224	1.51728	-0.687425	0.785469	0.328496	0.948944	0.462345	-0.127126	-0.20328	1.10763	-0.333542	0	0	-0.110331	-0.0154079	-0.112485	0.247809	-0.201241	0	0	-0.113306	0.0840011	-0.186848	-0.0282797	-0.28936	0.293551	0.812015	1.55049	0	0	-0.0481524	-0.256498	0.222029	0.81075	1.5708	0	0
2.06	-0.772945	1.5182	-0.665449	0.785355	0.320683	0.948408	0.470662	-0.1218	-0.197658	1.05847	-0.33217	0	0	-0.120281	-0.0170169	-0.114825	0.243858	-0.198596	0	0	-0.113818	0.0848453	-0.19042	-0.0241603	-0.291157	0.298295	0.808149	1.54745	0	0	-0.0438595	-0.255668	0.214	0.824498	1.5708	0	0
2.07	-0.832095	1.52048	-0.607125	0.785205	0.312761	0.947634	0.478747	-0.116338	-0.191325	1.00551	-0.329528	0	0	-0.127104	-0.0186628	-0.116369	0.241624	-0.195761	0	0	-0.110582	0.0856887	-0.186862	-0.0257147	-0.296533	0.301903	0.808325	1.52651	0	0	-0.0314932	-0.256835	0.224012	0.830596	1.5708	0	0
2.08	-0.88303	1.52213	-0.557467	0.784946	0.304804	0.946821	0.483049	-0.110519	-0.184038	0.947613	-0.326614	0	0	-0.134868	-0.0201737	-0.116246	0.23915	-0.192145	0	0	-0.109828	0.0864043	-0.189035	-0.0243056	-0.293598	0.293558	0.803902	1.5386	0	0	-0.0269916	-0.255861	0.21754	0.843319	1.5708	0	0
2.09	-0.933019	1.52383	-0.509412	0.784595	0.296764	0.945869	0.484757	-0.104937	-0.176318	0.885751	-0.322457	0	0	-0.142357	-0.0212856	-0.115929	0.237743	-0.187853	0	0	-0.108842	0.0869504	-0.19014	-0.0232062	-0.291162	0.286021	0.799864	1.54889	0	0	-0.0220341	-0.255207	0.213399	0.854947	1.5708	0	0
2.1	-0.984532	1.52613	-0.460125	0.784161	0.288615	0.944735	0.484536	-0.100643	-0.169084	0.820835	-0.317795	0	0	-0.149287	-0.021683	-0.115736	0.237338	-0.183005	0	0	-0.107324	0.0867529	-0.190457	-0.0227574	-0.288989	0.278786	0.796393	1.5574	0	0	-0.0168945	-0.254685	0.210636	0.865557	1.5708	0	0
2.11	-1.05397	1.5292	-0.393166	0.783649	0.280345	0.943396	0.483231	-0.0973856	-0.161874	0.753438	-0.313902	0	0	-0.155098	-0.0214011	-0.115944	0.237773	-0.177688	0	0	-0.104738	0.085842	-0.190089	-0.0229807	-0.287003	0.271767	0.793513	1.56452	0	0	-0.0116733	-0.254152	0.209003	0.875166	1.5708	0	0
2.12	-1.10319	1.53146	-0.346891	0.78306	0.271994	0.94206	0.478157	-0.0939257	-0.154283	0.682538	-0.313977	0	0	-0.162361	-0.0211866	-0.116929	0.238835	-0.171449	0	0	-0.100316	0.0848864	-0.199607	-0.00107012	-0.309647	0.351739	0.785757	1.46474	0	0	-0.0144471	-0.253679	0.196596	0.885984	1.5708	0	0
2.13	-1.15201	1.53378	-0.301073	0.782333	0.263532	0.940761	0.4705	-0.0903562	-0.145502	0.608256	-0.319076	0	0	-0.170115	-0.0208514	-0.117081	0.239515	-0.166221	0	0	-0.103254	0.0841939	-0.186129	-0.0250086	-0.283783	0.257024	0.790551	1.5708	0	0	-7.85845e-05	-0.252458	0.207459	0.891876	1.5708	0	0
2.14	-1.18754	1.5356	-0.268795	0.78152	0.25496	0.939438	0.459587	-0.0862083	-0.134639	0.531257	-0.324208	0	0	-0.178792	-0.0208237	-0.117676	0.240428	-0.161151	0	0	-0.103134	0.0833973	-0.18412	-0.0250803	-0.28345	0.25442	0.788733	1.5708	0	0	0.00507365	-0.251197	0.20603	0.898725	1.5708	0	0
2.15	-1.21886	1.53739	-0.240809	0.780624	0.24627	0.938071	0.446207	-0.0821817	-0.121475	0.45273	-0.329185	0	0	-0.18768	-0.0208363	-0.118807	0.241542	-0.156445	0	0	-0.103156	0.0825301	-0.182192	-0.0251277	-0.282899	0.251454	0.78696	1.5708	0	0	0.00963021	-0.249574	0.203946	0.904749	1.5708	0	0
2.16	-1.21976	1.5386	-0.243043	0.779653	0.237476	0.936741	0.429323	-0.077903	-0.105988	0.372914	-0.335522	0	0	-0.197496	-0.0212909	-0.120424	0.243216	-0.151724	0	0	-0.104308	0.0819778	-0.180897	-0.0244437	-0.282835	0.250808	0.785133	1.5708	0	0	0.013421	-0.247714	0.200688	0.910309	1.5708	0	0
2.17	-1.21768	1.53969	-0.247727	0.778636	0.228563	0.935354	0.412361	-0.0743192	-0.0898666	0.297618	-0.341957	0	0	-0.207056	-0.0220821	-0.122612	0.245418	-0.147229	0	0	-0.10512	0.0814628	-0.180446	-0.0228444	-0.28492	0.256905	0.783582	1.5642	0	0	0.016496	-0.245819	0.197262	0.914896	1.5708	0	0
2.18	-1.21258	1.54041	-0.254659	0.777599	0.219538	0.933942	0.39578	-0.0712792	-0.0740934	0.228802	-0.348388	0	0	-0.21643	-0.0234551	-0.12505	0.248113	-0.143054	0	0	-0.105855	0.0812548	-0.180838	-0.0206972	-0.2882	0.266852	0.782239	1.5498	0	0	0.0189644	-0.243678	0.193405	0.918575	1.5708	0	0
2.19	-1.29984	1.54216	-0.16886	0.776509	0.21034	0.93223	0.387115	-0.0698681	-0.0626685	0.178346	-0.340565	0	0	-0.221665	-0.0244929	-0.127694	0.253608	-0.137999	0	0	-0.10353	0.0805707	-0.17648	-0.0278294	-0.282104	0.243805	0.782582	1.5708	0	0	0.0250886	-0.240995	0.196435	0.917959	1.5708	0	0
2.2	-1.20834	1.54148	-0.260514	0.775525	0.201109	0.930981	0.370226	-0.0675371	-0.0528139	0.12894	-0.344919	0	0	-0.232931	-0.0270512	-0.131185	0.258775	-0.133726	0	0	-0.107631	0.0816636	-0.175494	-0.0300051	-0.282152	0.239433	0.784103	1.5708	0	0	0.0296547	-0.238009	0.195638	0.918563	1.5708	0	0
2.21	-1.08747	1.54	-0.380241	0.774695	0.191832	0.929849	0.355485	-0.0660963	-0.0497069	0.0949529	-0.346414	0	0	-0.245066	-0.0299159	-0.134159	0.26445	-0.130061	0	0	-0.112875	0.0831739	-0.176335	-0.0313522	-0.282756	0.237158	0.785614	1.5708	0	0	0.033531	-0.234794	0.19431	0.918415	1.5708	0	0
2.22	-0.950141	1.53744	-0.51592	0.773965	0.182578	0.928893	0.343164	-0.0648781	-0.0508711	0.0761287	-0.347001	0	0	-0.258121	-0.0328737	-0.136769	0.270265	-0.127258	0	0	-0.11958	0.0850881	-0.178021	-0.0318637	-0.283759	0.23605	0.787182	1.5708	0	0	0.0371374	-0.231285	0.192703	0.91726	1.5708	0	0
2.23	-0.793534	1.53203	-0.670511	0.773277	0.173294	0.928254	0.330416	-0.0625403	-0.0546258	0.0690006	-0.346288	0	0	-0.273971	-0.0369795	-0.139636	0.275673	-0.125004	0	0	-0.125242	0.0881165	-0.189829	-0.00830023	-0.317193	0.33989	0.785748	1.43987	0	0	0.0345351	-0.228903	0.184108	0.915111	1.5708	0	0
2.24	-0.790148	1.53046	-0.670619	0.772461	0.163649	0.927398	0.328894	-0.0601576	-0.0627792	0.0781178	-0.346447	0	0	-0.281801	-0.0416903	-0.13894	0.282866	-0.123605	0	0	-0.13084	0.0911072	-0.183463	-0.032604	-0.285985	0.235698	0.788778	1.5708	0	0	0.0429049	-0.222687	0.189531	0.909386	1.5708	0	0
2.25	-0.806743	1.52899	-0.651958	0.771492	0.153905	0.926606	0.330587	-0.0563422	-0.0695916	0.0967434	-0.347325	0	0	-0.288741	-0.0467636	-0.139348	0.290365	-0.123243	0	0	-0.130905	0.0941138	-0.185938	-0.0328553	-0.286523	0.236679	0.786603	1.5708	0	0	0.0446667	-0.218009	0.189399	0.901497	1.5708	0	0
2.26	-0.837325	1.52774	-0.619964	0.770391	0.144045	0.925905	0.334922	-0.0518271	-0.0766255	0.123945	-0.349069	0	0	-0.294642	-0.0520414	-0.14007	0.298597	-0.123841	0	0	-0.129983	0.0972086	-0.187722	-0.0333045	-0.287181	0.238034	0.784299	1.5708	0	0	0.046049	-0.213194	0.189957	0.892065	1.5708	0	0
2.27	-0.878558	1.5261	-0.576526	0.769234	0.133918	0.925357	0.338227	-0.0465448	-0.0840364	0.152158	-0.349268	0	0	-0.299766	-0.0583931	-0.140106	0.308068	-0.125413	0	0	-0.127923	0.10081	-0.190134	-0.0342514	-0.287592	0.239394	0.781344	1.5708	0	0	0.0468239	-0.208549	0.191898	0.880978	1.5708	0	0
2.28	-0.913128	1.52367	-0.538781	0.768051	0.12353	0.924992	0.336746	-0.0405006	-0.0892095	0.172634	-0.34989	0	0	-0.305162	-0.0658084	-0.139737	0.318129	-0.128062	0	0	-0.125864	0.104862	-0.193509	-0.0357639	-0.287786	0.240447	0.778629	1.5708	0	0	0.0465834	-0.204394	0.194872	0.869556	1.5708	0	0
2.29	-0.943304	1.52087	-0.504722	0.766864	0.112884	0.924765	0.331464	-0.0343213	-0.093552	0.184371	-0.354647	0	0	-0.310335	-0.0738336	-0.139138	0.329121	-0.131641	0	0	-0.123323	0.109175	-0.197523	-0.0380058	-0.288088	0.241555	0.776277	1.5708	0	0	0.0454374	-0.200539	0.1988	0.857782	1.5708	0	0
2.3	-0.977475	1.51807	-0.465988	0.765711	0.101953	0.92465	0.324487	-0.028589	-0.0992233	0.189548	-0.366161	0	0	-0.314411	-0.0823244	-0.137865	0.341568	-0.136237	0	0	-0.119633	0.113673	-0.202377	-0.0409042	-0.288263	0.242364	0.773851	1.5708	0	0	0.0429511	-0.196972	0.20349	0.845888	1.5708	0	0
2.31	-1.028	1.51568	-0.41008	0.76455	0.0906991	0.924585	0.318205	-0.0236893	-0.108566	0.193122	-0.378354	0	0	-0.315771	-0.0913112	-0.135636	0.356463	-0.141121	0	0	-0.113836	0.118099	-0.208509	-0.0445667	-0.28775	0.241852	0.771147	1.5708	0	0	0.0383056	-0.193613	0.20761	0.834625	1.5708	0	0
2.32	-1.16515	1.50694	-0.270346	0.764213	0.0788628	0.922532	0.329776	-0.0178957	-0.143606	0.234247	-0.379616	0	0	-0.273994	-0.167495	-0.322971	0.491749	-0.149575	0	0	-0.102338	0.132818	-0.212954	-0.0568304	-0.300802	0.249442	0.789425	1.5708	0	0	0.0262842	-0.188356	0.209425	0.834337	1.5708	0	0
2.33	-1.08535	1.51204	-0.343968	0.761856	0.0676869	0.924696	0.323845	-0.0245545	-0.168474	0.253439	-0.397936	0	0	-0.315449	-0.107159	-0.130589	0.395176	-0.156258	0	0	-0.102347	0.123942	-0.217642	-0.0556101	-0.287086	0.238877	0.769942	1.5708	0	0	0.0257884	-0.18973	0.219646	0.816087	1.5708	0	0
2.34	-1.08595	1.50841	-0.341073	0.760302	0.056124	0.925217	0.322522	-0.0223907	-0.198223	0.28089	-0.40382	0	0	-0.315398	-0.115612	-0.12785	0.418344	-0.166097	0	0	-0.0992875	0.127845	-0.219817	-0.0608603	-0.286744	0.236343	0.770019	1.5708	0	0	0.0187304	-0.188277	0.226025	0.808286	1.5708	0	0
